<svg id="visual" viewBox="0 0 900 450" width="900" height="450" xmlns="http://www.w3.org/2000/svg" xmlns:xlink="http://www.w3.org/1999/xlink" version="1.1"><path d="M0 73L13.7 68.5C27.3 64 54.7 55 82 53.5C109.3 52 136.7 58 163.8 55.8C191 53.7 218 43.3 245.2 39.7C272.3 36 299.7 39 327 42.7C354.3 46.3 381.7 50.7 409 55.2C436.3 59.7 463.7 64.3 491 65.8C518.3 67.3 545.7 65.7 573 61.2C600.3 56.7 627.7 49.3 654.8 47.2C682 45 709 48 736.2 48.7C763.3 49.3 790.7 47.7 818 46.2C845.3 44.7 872.7 43.3 886.3 42.7L900 42L900 0L886.3 0C872.7 0 845.3 0 818 0C790.7 0 763.3 0 736.2 0C709 0 682 0 654.8 0C627.7 0 600.3 0 573 0C545.7 0 518.3 0 491 0C463.7 0 436.3 0 409 0C381.7 0 354.3 0 327 0C299.7 0 272.3 0 245.2 0C218 0 191 0 163.8 0C136.7 0 109.3 0 82 0C54.7 0 27.3 0 13.7 0L0 0Z" fill="#cabfcb"></path><path d="M0 123L13.7 117C27.3 111 54.7 99 82 93.7C109.3 88.3 136.7 89.7 163.8 85.2C191 80.7 218 70.3 245.2 69.7C272.3 69 299.7 78 327 82.5C354.3 87 381.7 87 409 90.7C436.3 94.3 463.7 101.7 491 103.2C518.3 104.7 545.7 100.3 573 97.3C600.3 94.3 627.7 92.7 654.8 88.8C682 85 709 79 736.2 78.3C763.3 77.7 790.7 82.3 818 84.7C845.3 87 872.7 87 886.3 87L900 87L900 40L886.3 40.7C872.7 41.3 845.3 42.7 818 44.2C790.7 45.7 763.3 47.3 736.2 46.7C709 46 682 43 654.8 45.2C627.7 47.3 600.3 54.7 573 59.2C545.7 63.7 518.3 65.3 491 63.8C463.7 62.3 436.3 57.7 409 53.2C381.7 48.7 354.3 44.3 327 40.7C299.7 37 272.3 34 245.2 37.7C218 41.3 191 51.7 163.8 53.8C136.7 56 109.3 50 82 51.5C54.7 53 27.3 62 13.7 66.5L0 71Z" fill="#c2b6c4"></path><path d="M0 145L13.7 142.8C27.3 140.7 54.7 136.3 82 134.2C109.3 132 136.7 132 163.8 129.7C191 127.3 218 122.7 245.2 121.8C272.3 121 299.7 124 327 125.5C354.3 127 381.7 127 409 133.8C436.3 140.7 463.7 154.3 491 155.2C518.3 156 545.7 144 573 135.7C600.3 127.3 627.7 122.7 654.8 123.3C682 124 709 130 736.2 131.5C763.3 133 790.7 130 818 129.3C845.3 128.7 872.7 130.3 886.3 131.2L900 132L900 85L886.3 85C872.7 85 845.3 85 818 82.7C790.7 80.3 763.3 75.7 736.2 76.3C709 77 682 83 654.8 86.8C627.7 90.7 600.3 92.3 573 95.3C545.7 98.3 518.3 102.7 491 101.2C463.7 99.7 436.3 92.3 409 88.7C381.7 85 354.3 85 327 80.5C299.7 76 272.3 67 245.2 67.7C218 68.3 191 78.7 163.8 83.2C136.7 87.7 109.3 86.3 82 91.7C54.7 97 27.3 109 13.7 115L0 121Z" fill="#baacbc"></path><path d="M0 222L13.7 220.5C27.3 219 54.7 216 82 219.7C109.3 223.3 136.7 233.7 163.8 237.3C191 241 218 238 245.2 238.8C272.3 239.7 299.7 244.3 327 238.3C354.3 232.3 381.7 215.7 409 216.3C436.3 217 463.7 235 491 239.5C518.3 244 545.7 235 573 229.8C600.3 224.7 627.7 223.3 654.8 221.8C682 220.3 709 218.7 736.2 229.2C763.3 239.7 790.7 262.3 818 271.3C845.3 280.3 872.7 275.7 886.3 273.3L900 271L900 130L886.3 129.2C872.7 128.3 845.3 126.7 818 127.3C790.7 128 763.3 131 736.2 129.5C709 128 682 122 654.8 121.3C627.7 120.7 600.3 125.3 573 133.7C545.7 142 518.3 154 491 153.2C463.7 152.3 436.3 138.7 409 131.8C381.7 125 354.3 125 327 123.5C299.7 122 272.3 119 245.2 119.8C218 120.7 191 125.3 163.8 127.7C136.7 130 109.3 130 82 132.2C54.7 134.3 27.3 138.7 13.7 140.8L0 143Z" fill="#b2a3b5"></path><path d="M0 325L13.7 328C27.3 331 54.7 337 82 337.8C109.3 338.7 136.7 334.3 163.8 330.7C191 327 218 324 245.2 326.2C272.3 328.3 299.7 335.7 327 340.2C354.3 344.7 381.7 346.3 409 350.2C436.3 354 463.7 360 491 359.2C518.3 358.3 545.7 350.7 573 348.3C600.3 346 627.7 349 654.8 353.5C682 358 709 364 736.2 364C763.3 364 790.7 358 818 355C845.3 352 872.7 352 886.3 352L900 352L900 269L886.3 271.3C872.7 273.7 845.3 278.3 818 269.3C790.7 260.3 763.3 237.7 736.2 227.2C709 216.7 682 218.3 654.8 219.8C627.7 221.3 600.3 222.7 573 227.8C545.7 233 518.3 242 491 237.5C463.7 233 436.3 215 409 214.3C381.7 213.7 354.3 230.3 327 236.3C299.7 242.3 272.3 237.7 245.2 236.8C218 236 191 239 163.8 235.3C136.7 231.7 109.3 221.3 82 217.7C54.7 214 27.3 217 13.7 218.5L0 220Z" fill="#a294a5"></path><path d="M0 406L13.7 409C27.3 412 54.7 418 82 421C109.3 424 136.7 424 163.8 422.5C191 421 218 418 245.2 418C272.3 418 299.7 421 327 420.3C354.3 419.7 381.7 415.3 409 416.2C436.3 417 463.7 423 491 423.7C518.3 424.3 545.7 419.7 573 416.7C600.3 413.7 627.7 412.3 654.8 411.7C682 411 709 411 736.2 411C763.3 411 790.7 411 818 411.7C845.3 412.3 872.7 413.7 886.3 414.3L900 415L900 350L886.3 350C872.7 350 845.3 350 818 353C790.7 356 763.3 362 736.2 362C709 362 682 356 654.8 351.5C627.7 347 600.3 344 573 346.3C545.7 348.7 518.3 356.3 491 357.2C463.7 358 436.3 352 409 348.2C381.7 344.3 354.3 342.7 327 338.2C299.7 333.7 272.3 326.3 245.2 324.2C218 322 191 325 163.8 328.7C136.7 332.3 109.3 336.7 82 335.8C54.7 335 27.3 329 13.7 326L0 323Z" fill="#928595"></path><path d="M0 451L13.7 451C27.3 451 54.7 451 82 451C109.3 451 136.7 451 163.8 451C191 451 218 451 245.2 451C272.3 451 299.7 451 327 451C354.3 451 381.7 451 409 451C436.3 451 463.7 451 491 451C518.3 451 545.7 451 573 451C600.3 451 627.7 451 654.8 451C682 451 709 451 736.2 451C763.3 451 790.7 451 818 451C845.3 451 872.7 451 886.3 451L900 451L900 413L886.3 412.3C872.7 411.7 845.3 410.3 818 409.7C790.7 409 763.3 409 736.2 409C709 409 682 409 654.8 409.7C627.7 410.3 600.3 411.7 573 414.7C545.7 417.7 518.3 422.3 491 421.7C463.7 421 436.3 415 409 414.2C381.7 413.3 354.3 417.7 327 418.3C299.7 419 272.3 416 245.2 416C218 416 191 419 163.8 420.5C136.7 422 109.3 422 82 419C54.7 416 27.3 410 13.7 407L0 404Z" fill="#837686"></path></svg>