<svg id="visual" viewBox="0 0 1920 1080" width="1920" height="1080" xmlns="http://www.w3.org/2000/svg" xmlns:xlink="http://www.w3.org/1999/xlink" version="1.1"><rect x="0" y="0" width="1920" height="1080" fill="#B2A3B5"></rect><path d="M398 0L401.5 22.5C405 45 412 90 436.5 135C461 180 503 225 513.7 270C524.3 315 503.7 360 473.2 405C442.7 450 402.3 495 407.2 540C412 585 462 630 469.3 675C476.7 720 441.3 765 417.3 810C393.3 855 380.7 900 399.2 945C417.7 990 467.3 1035 492.2 1057.5L517 1080L0 1080L0 1057.5C0 1035 0 990 0 945C0 900 0 855 0 810C0 765 0 720 0 675C0 630 0 585 0 540C0 495 0 450 0 405C0 360 0 315 0 270C0 225 0 180 0 135C0 90 0 45 0 22.5L0 0Z" fill="#FAF8D4" stroke-linecap="round" stroke-linejoin="miter"></path></svg>