<svg width="50" height="50" viewBox="0 0 50 50" fill="none" xmlns="http://www.w3.org/2000/svg">
<path d="M46.4286 19.6429H30.3571V3.57143C30.3571 1.59933 28.7578 0 26.7857 0H23.2143C21.2422 0 19.6429 1.59933 19.6429 3.57143V19.6429H3.57143C1.59933 19.6429 0 21.2422 0 23.2143V26.7857C0 28.7578 1.59933 30.3571 3.57143 30.3571H19.6429V46.4286C19.6429 48.4007 21.2422 50 23.2143 50H26.7857C28.7578 50 30.3571 48.4007 30.3571 46.4286V30.3571H46.4286C48.4007 30.3571 50 28.7578 50 26.7857V23.2143C50 21.2422 48.4007 19.6429 46.4286 19.6429Z" fill="black"/>
</svg>
